<svg id="Group_98" data-name="Group 98" xmlns="http://www.w3.org/2000/svg" xmlns:xlink="http://www.w3.org/1999/xlink" viewBox="0 0 589.998 292.633">
  <defs>
    <style>
      .cls-1 {
        fill: #e1ebf2;
      }

      .cls-2 {
        fill: #848484;
      }

      .cls-3 {
        fill: #9721d6;
      }

      .cls-4 {
        fill: #b7b7b7;
      }

      .cls-5 {
        fill: #f9d6b7;
      }

      .cls-6 {
        fill: #231f20;
      }

      .cls-7 {
        fill: #cececf;
      }

      .cls-8 {
        fill: #3a3436;
      }

      .cls-9 {
        fill: #fff;
      }

      .cls-10 {
        fill: #43d6cb;
      }

      .cls-11 {
        fill: #ff508f;
      }

      .cls-12 {
        fill: #ebebf5;
      }

      .cls-13 {
        opacity: 0.5;
      }

      .cls-13, .cls-18 {
        clip-path: url(#clip-path);
      }

      .cls-14 {
        fill: #8381ce;
      }

      .cls-15 {
        fill: #dbdbdb;
      }

      .cls-16 {
        fill: #47439e;
      }

      .cls-17 {
        fill: #cccbe7;
      }

      .cls-19 {
        fill: #b8cad9;
      }

      .cls-20 {
        fill: #8fa1b3;
      }

      .cls-21 {
        fill: #e8e8e8;
      }
    </style>
    <clipPath id="clip-path">
      <rect id="Rectangle_30" data-name="Rectangle 30" width="268.344" height="145.107"/>
    </clipPath>
  </defs>
  <path id="XMLID_244_" class="cls-1" d="M590,207.087H0V160.4H531.85Z" transform="translate(0 8.261)"/>
  <ellipse id="XMLID_243_" class="cls-2" cx="164.35" cy="3.155" rx="164.35" ry="3.155" transform="translate(49.736 198.734)"/>
  <ellipse id="XMLID_242_" class="cls-2" cx="30.599" cy="1.893" rx="30.599" ry="1.893" transform="translate(412.61 199.996)"/>
  <g id="XMLID_224_" transform="translate(437.623 98.652)">
    <rect id="XMLID_234_" class="cls-3" width="7.361" height="60.356" transform="translate(10.242 0) rotate(9.77)"/>
    <rect id="XMLID_227_" class="cls-4" width="3.68" height="60.356" transform="translate(13.895 0.632) rotate(9.77)"/>
    <path id="XMLID_226_" class="cls-5" d="M416.2,150.518l2.1,9.884,5.152-8.622.421-2.418-1.788,2.208-1.788-2.839-2.524,2.1-1.157-2.734Z" transform="translate(-416.187 -91.025)"/>
    <path id="XMLID_225_" class="cls-6" d="M418.246,160.006l2.208-3.68-1.577-.315a8.115,8.115,0,0,0-1.577-.21Z" transform="translate(-416.131 -90.628)"/>
  </g>
  <g id="XMLID_216_" transform="translate(434.902 90.429)">
    <circle id="XMLID_223_" class="cls-7" cx="0.736" cy="0.736" r="0.736" transform="translate(3.891 90.64)"/>
    <rect id="XMLID_222_" class="cls-6" width="7.361" height="74.026" transform="translate(0.946 7.676)"/>
    <path id="XMLID_221_" class="cls-6" d="M422.748,122.8H413.6V88.524A2.559,2.559,0,0,1,416.124,86h4.1a2.559,2.559,0,0,1,2.524,2.524V122.8Z" transform="translate(-413.6 -86)"/>
    <rect id="XMLID_220_" class="cls-4" width="7.361" height="1.052" transform="translate(0.946 36.803)"/>
    <path id="XMLID_219_" class="cls-6" d="M422.3,90.9v1.051h1.367v24.815a.892.892,0,0,0-.736.841v3.26a.942.942,0,0,0,.946.946h.841V90.9Z" transform="translate(-413.152 -85.748)"/>
    <rect id="XMLID_218_" class="cls-8" width="7.361" height="2.839" transform="translate(0.946 81.702)"/>
    <path id="XMLID_217_" class="cls-6" d="M418.811,173.235l3.049-6.835H414.5l2.944,6.835Z" transform="translate(-413.554 -81.859)"/>
  </g>
  <g id="XMLID_208_" transform="translate(441.316 94.215)">
    <circle id="XMLID_215_" class="cls-9" cx="0.736" cy="0.736" r="0.736" transform="translate(36.803)"/>
    <rect id="XMLID_214_" class="cls-10" width="7.361" height="74.026" transform="translate(10.697 80.173) rotate(-158.832)"/>
    <path id="XMLID_213_" class="cls-10" d="M433.219,137.1l8.517,3.26-12.408,31.966a2.621,2.621,0,0,1-3.26,1.472l-3.891-1.472a2.621,2.621,0,0,1-1.472-3.26Z" transform="translate(-419.655 -87.154)"/>
    <rect id="XMLID_212_" class="cls-4" width="7.361" height="1.052" transform="translate(21.298 53.031) rotate(-158.832)"/>
    <path id="XMLID_211_" class="cls-10" d="M421.908,166.652l.421-.946-1.262-.526L430,142.047a.752.752,0,0,0,.946-.526l1.157-3.049a.8.8,0,0,0-.526-1.157l-.736-.315-.526,1.472-1.262,3.365L419.7,165.916Z" transform="translate(-419.7 -87.159)"/>
    <rect id="XMLID_210_" class="cls-9" width="7.361" height="2.839" transform="translate(37.455 11.081) rotate(-158.832)"/>
    <path id="XMLID_209_" class="cls-10" d="M454.952,90.1,449.8,95.358l6.835,2.629-.315-7.361Z" transform="translate(-418.15 -89.574)"/>
  </g>
  <g id="XMLID_203_" transform="translate(421.116 110.415)">
    <rect id="XMLID_207_" class="cls-11" width="7.361" height="60.356" transform="translate(0 1.224) rotate(-9.573)"/>
    <rect id="XMLID_206_" class="cls-4" width="3.68" height="60.356" transform="translate(3.549 0.616) rotate(-9.573)"/>
    <path id="XMLID_205_" class="cls-5" d="M410.021,162.98l5.152,8.622,2.1-9.884-.421-2.418-.946,2.629-2.734-2-1.577,2.734-2-2.1Z" transform="translate(-400.02 -102.211)"/>
    <path id="XMLID_204_" class="cls-6" d="M415.013,171.206l.841-4.206c-.526.105-1.052.105-1.577.21l-1.577.315Z" transform="translate(-399.861 -101.814)"/>
  </g>
  <g id="XMLID_198_" transform="translate(450.72 105.886)">
    <rect id="XMLID_202_" class="cls-11" width="7.361" height="60.356" transform="matrix(0.995, 0.104, -0.104, 0.995, 6.283, 8.942)"/>
    <rect id="XMLID_201_" class="cls-4" width="3.68" height="60.356" transform="matrix(0.995, 0.104, -0.104, 0.995, 9.951, 9.345)"/>
    <path id="XMLID_200_" class="cls-5" d="M434.61,109.638l4.627-8.938,2.734,9.674-.315,2.524-1.052-2.629-2.524,2.208-1.893-2.629-1.788,2.208Z" transform="translate(-428.347 -100.7)"/>
    <path id="XMLID_199_" class="cls-6" d="M439.1,100.7l1.157,4.1c-.526,0-1.052-.105-1.577-.105-.526-.105-1.052-.105-1.577-.21Z" transform="translate(-428.208 -100.7)"/>
  </g>
  <g id="XMLID_75_" transform="translate(47.002)">
    <path id="XMLID_197_" class="cls-7" d="M211.468,182.4H44.7c0,3.68,4.1,6.835,9.779,7.466l8.833.946A253.592,253.592,0,0,0,91.6,192.389H331.55a253.592,253.592,0,0,0,28.285-1.577l8.833-.946c5.678-.631,9.779-3.785,9.779-7.466H211.468Z" transform="translate(-44.7 9.394)"/>
    <path id="XMLID_196_" class="cls-9" d="M63.1,177.7V15.562A15.663,15.663,0,0,1,78.662,0H342.274a15.594,15.594,0,0,1,15.562,15.562V177.7Z" transform="translate(-43.752)"/>
    <path id="XMLID_195_" class="cls-6" d="M340.709,1.8H80.147A15.258,15.258,0,0,0,64.9,17.047V175.719H355.956V17.047A15.258,15.258,0,0,0,340.709,1.8Z" transform="translate(-43.66 0.093)"/>
    <path id="XMLID_194_" class="cls-7" d="M357,167.2H65.94L44.7,183.183H378.237Z" transform="translate(-44.7 8.611)"/>
    <rect id="XMLID_193_" class="cls-12" width="268.344" height="145.107" transform="translate(32.597 17.876)"/>
    <g id="XMLID_166_" transform="translate(32.597 17.876)">
      <g id="XMLID_186_" class="cls-13">
        <path id="XMLID_192_" class="cls-14" d="M244.2,60l-40.9,79.178h81.807Z" transform="translate(-69.128 -14.785)"/>
        <path id="XMLID_191_" class="cls-15" d="M283.1,139.178,242.2,60l8.622,43.637-8.622,2.418v33.122Z" transform="translate(-67.125 -14.785)"/>
        <path id="XMLID_190_" class="cls-16" d="M278.957,43.6,228.8,140.549H329.008Z" transform="translate(-67.815 -15.63)"/>
        <path id="XMLID_189_" class="cls-15" d="M326.552,140.549,276.5,43.6l10.515,53.416L276.5,99.961v40.588Z" transform="translate(-65.358 -15.63)"/>
        <path id="XMLID_188_" class="cls-17" d="M322.084,72.4,287.7,139.065h68.768Z" transform="translate(-64.781 -14.147)"/>
        <path id="XMLID_187_" class="cls-15" d="M354.784,139.065,320.4,72.4l7.255,36.7-7.255,2.1v27.865Z" transform="translate(-63.097 -14.147)"/>
      </g>
      <g id="XMLID_177_" class="cls-13">
        <path id="XMLID_185_" class="cls-14" d="M93.6,63.1,52.7,142.278h81.807Z" transform="translate(-76.885 -14.626)"/>
        <path id="XMLID_182_" class="cls-15" d="M132.5,142.278,91.6,63.1l8.622,43.637L91.6,109.156v33.122Z" transform="translate(-74.881 -14.626)"/>
        <g id="Group_97" data-name="Group 97" transform="translate(33.543 33.858)">
          <path id="XMLID_181_" class="cls-16" d="M157.757,49.2,107.6,124.067H207.808Z" transform="translate(-107.6 -49.2)"/>
          <path id="XMLID_180_" class="cls-15" d="M205.352,124.067,155.3,49.2l10.515,41.219L155.3,92.732v31.335Z" transform="translate(-105.143 -49.2)"/>
        </g>
        <path id="XMLID_179_" class="cls-17" d="M186.684,72.4,152.3,139.065h68.873Z" transform="translate(-71.755 -14.147)"/>
        <path id="XMLID_178_" class="cls-15" d="M219.489,139.065,185,72.4l7.255,36.7L185,111.2v27.865Z" transform="translate(-70.071 -14.147)"/>
      </g>
      <g id="XMLID_170_" class="cls-18">
        <path id="XMLID_176_" class="cls-14" d="M126.234,62.2,50,164.827H202.468Z" transform="translate(-77.024 -14.672)"/>
        <path id="XMLID_175_" class="cls-15" d="M198.734,164.827,122.5,62.2l16.088,56.571L122.5,121.925v42.9Z" transform="translate(-73.29 -14.672)"/>
        <path id="XMLID_174_" class="cls-16" d="M211.373,40.2,118,165.96H304.747Z" transform="translate(-73.521 -15.805)"/>
        <path id="XMLID_173_" class="cls-15" d="M300.173,165.96,206.8,40.2l19.663,69.294L206.8,113.385V165.96Z" transform="translate(-68.948 -15.805)"/>
        <path id="XMLID_172_" class="cls-17" d="M291.947,77.6,227.7,164.034H356.089Z" transform="translate(-67.872 -13.879)"/>
        <path id="XMLID_171_" class="cls-15" d="M352.942,164.034,288.8,77.6l13.459,47.633L288.8,127.862v36.172Z" transform="translate(-64.725 -13.879)"/>
      </g>
    </g>
    <path id="XMLID_165_" class="cls-4" d="M211.468,182.4H44.7c0,3.68,4.1,6.835,9.779,7.466l8.833.946A253.592,253.592,0,0,0,91.6,192.389H331.55a253.592,253.592,0,0,0,28.285-1.577l8.833-.946c5.678-.631,9.779-3.785,9.779-7.466H211.468Z" transform="translate(-44.7 9.394)"/>
    <path id="XMLID_164_" class="cls-9" d="M47.013,186.921H376.029a6,6,0,0,0,2.313-4.521H44.7A6,6,0,0,0,47.013,186.921Z" transform="translate(-44.7 9.394)"/>
    <g id="XMLID_76_" transform="translate(8.412 178.65)">
      <path id="XMLID_163_" class="cls-6" d="M133.7,174.632h11.356l2.208-4.732H136.329Z" transform="translate(-48.528 -169.9)"/>
      <path id="XMLID_162_" class="cls-6" d="M121.9,174.632h11.356l2.629-4.732h-10.83Z" transform="translate(-49.136 -169.9)"/>
      <path id="XMLID_161_" class="cls-6" d="M192.782,169.9H181.741l-.841,4.732h11.461Z" transform="translate(-46.097 -169.9)"/>
      <path id="XMLID_160_" class="cls-6" d="M145.5,174.632h11.356l1.788-4.732H147.708Z" transform="translate(-47.921 -169.9)"/>
      <path id="XMLID_159_" class="cls-6" d="M157.3,174.632h11.356l1.367-4.732H159.088Z" transform="translate(-47.313 -169.9)"/>
      <path id="XMLID_158_" class="cls-6" d="M181.4,169.9H170.362l-1.262,4.732h11.461Z" transform="translate(-46.705 -169.9)"/>
      <path id="XMLID_157_" class="cls-6" d="M98.3,174.632h11.251l3.575-4.732H102.3Z" transform="translate(-50.351 -169.9)"/>
      <path id="XMLID_156_" class="cls-6" d="M74.8,174.632H85.841l4.416-4.732H79.637Z" transform="translate(-51.562 -169.9)"/>
      <path id="XMLID_155_" class="cls-6" d="M110.1,174.632h11.251l3.155-4.732h-10.83Z" transform="translate(-49.744 -169.9)"/>
      <path id="XMLID_154_" class="cls-6" d="M69.2,179.927H80.872l4.416-4.627H74.142Z" transform="translate(-51.85 -169.622)"/>
      <path id="XMLID_153_" class="cls-6" d="M192.7,174.632h11.461V169.9H193.121Z" transform="translate(-45.49 -169.9)"/>
      <path id="XMLID_152_" class="cls-6" d="M86.6,174.632H97.746l3.891-4.732H91.016Z" transform="translate(-50.954 -169.9)"/>
      <path id="XMLID_151_" class="cls-6" d="M251.688,174.632h11.356l-2.208-4.732H249.9Z" transform="translate(-42.544 -169.9)"/>
      <path id="XMLID_150_" class="cls-6" d="M287.249,174.632H298.5l-3.575-4.732H284.2Z" transform="translate(-40.777 -169.9)"/>
      <path id="XMLID_149_" class="cls-6" d="M299.07,174.632h11.251l-4-4.732H295.6Z" transform="translate(-40.19 -169.9)"/>
      <path id="XMLID_148_" class="cls-6" d="M311,174.632h11.146l-4.416-4.732H307Z" transform="translate(-39.603 -169.9)"/>
      <path id="XMLID_147_" class="cls-6" d="M275.434,174.632h11.251l-3.049-4.732H272.7Z" transform="translate(-41.369 -169.9)"/>
      <path id="XMLID_146_" class="cls-6" d="M333.962,174.632,329.02,169.9H318.4l4.416,4.732Z" transform="translate(-39.016 -169.9)"/>
      <path id="XMLID_145_" class="cls-6" d="M216.226,174.632h11.461l-.946-4.732H215.7Z" transform="translate(-44.305 -169.9)"/>
      <path id="XMLID_144_" class="cls-6" d="M228.046,174.632h11.461l-1.367-4.732H227.1Z" transform="translate(-43.718 -169.9)"/>
      <path id="XMLID_143_" class="cls-6" d="M204.5,174.632h11.251l-.421-4.732H204.5Z" transform="translate(-44.882 -169.9)"/>
      <path id="XMLID_142_" class="cls-6" d="M239.867,174.632h11.356l-1.682-4.732H238.5Z" transform="translate(-43.131 -169.9)"/>
      <path id="XMLID_141_" class="cls-6" d="M263.508,174.632h11.356l-2.629-4.732H261.3Z" transform="translate(-41.956 -169.9)"/>
      <path id="XMLID_140_" class="cls-6" d="M97.167,175.3H85.916L81.5,179.927H93.172Z" transform="translate(-51.217 -169.622)"/>
      <path id="XMLID_139_" class="cls-6" d="M322.751,175.3H311.5l4,4.627h11.672Z" transform="translate(-39.371 -169.622)"/>
      <path id="XMLID_138_" class="cls-6" d="M287.156,175.3H275.8l2.629,4.627h11.882Z" transform="translate(-41.21 -169.622)"/>
      <path id="XMLID_137_" class="cls-6" d="M299.056,175.3H287.7l3.049,4.627h11.777Z" transform="translate(-40.597 -169.622)"/>
      <path id="XMLID_136_" class="cls-6" d="M275.256,175.3H263.9l2.208,4.627H277.99Z" transform="translate(-41.822 -169.622)"/>
      <path id="XMLID_135_" class="cls-6" d="M263.467,175.3H251.9l1.788,4.627h11.987Z" transform="translate(-42.441 -169.622)"/>
      <path id="XMLID_134_" class="cls-6" d="M310.851,175.3H299.6l3.575,4.627h11.672Z" transform="translate(-39.984 -169.622)"/>
      <path id="XMLID_133_" class="cls-6" d="M348.544,175.2v.105H335.4l4.837,4.627h14.616Z" transform="translate(-38.14 -169.627)"/>
      <path id="XMLID_132_" class="cls-6" d="M74.2,174.632l4.837-4.732H66.1l-6.2,4.732Z" transform="translate(-52.329 -169.9)"/>
      <path id="XMLID_131_" class="cls-6" d="M73.625,175.3H59.009L52.7,179.927H68.683Z" transform="translate(-52.7 -169.622)"/>
      <path id="XMLID_130_" class="cls-6" d="M251.567,175.3H240l1.367,4.627h11.987Z" transform="translate(-43.053 -169.622)"/>
      <path id="XMLID_129_" class="cls-6" d="M334.651,175.3H323.4l4.416,4.627h11.672Z" transform="translate(-38.758 -169.622)"/>
      <path id="XMLID_128_" class="cls-6" d="M334.637,174.632h13.039l-6.309-4.732H329.8Z" transform="translate(-38.428 -169.9)"/>
      <path id="XMLID_127_" class="cls-6" d="M109.047,175.3H97.8l-4,4.627h11.777Z" transform="translate(-50.583 -169.622)"/>
      <path id="XMLID_126_" class="cls-6" d="M156.67,175.3H145.208L143,179.927h11.882Z" transform="translate(-48.049 -169.622)"/>
      <path id="XMLID_125_" class="cls-6" d="M144.79,175.3H133.329l-2.629,4.627h11.882Z" transform="translate(-48.683 -169.622)"/>
      <path id="XMLID_124_" class="cls-6" d="M168.549,175.3H156.982l-1.682,4.627h11.882Z" transform="translate(-47.416 -169.622)"/>
      <path id="XMLID_123_" class="cls-6" d="M132.911,175.3H121.449l-3.049,4.627h11.777Z" transform="translate(-49.316 -169.622)"/>
      <path id="XMLID_122_" class="cls-6" d="M120.926,175.3H109.675l-3.575,4.627h11.777Z" transform="translate(-49.95 -169.622)"/>
      <path id="XMLID_121_" class="cls-6" d="M180.428,175.3H168.862l-1.262,4.627h11.987Z" transform="translate(-46.782 -169.622)"/>
      <path id="XMLID_120_" class="cls-6" d="M227.767,175.3H216.2l.526,4.627h11.987Z" transform="translate(-44.279 -169.622)"/>
      <path id="XMLID_119_" class="cls-6" d="M215.856,175.3H204.5v4.627h11.777Z" transform="translate(-44.882 -169.622)"/>
      <path id="XMLID_118_" class="cls-6" d="M192.308,175.3H180.741l-.841,4.627h11.987Z" transform="translate(-46.149 -169.622)"/>
      <path id="XMLID_117_" class="cls-6" d="M239.667,175.3H228.1l.946,4.627h11.987Z" transform="translate(-43.666 -169.622)"/>
      <path id="XMLID_77_" class="cls-6" d="M204.187,175.3H192.621l-.421,4.627h11.987Z" transform="translate(-45.515 -169.622)"/>
    </g>
  </g>
  <rect id="XMLID_74_" class="cls-19" width="589.998" height="19.979" transform="translate(0 215.348)"/>
  <rect id="XMLID_73_" class="cls-19" width="516.814" height="57.307" transform="translate(0 235.326)"/>
  <rect id="XMLID_19_" class="cls-20" width="516.814" height="11.146" transform="translate(0 235.326)"/>
  <path id="XMLID_18_" class="cls-21" d="M445.215,149.9H400v33.648a10.591,10.591,0,0,0,10.62,10.62h23.974a10.591,10.591,0,0,0,10.62-10.62Z" transform="translate(20.601 7.72)"/>
  <path id="XMLID_3_" class="cls-21" d="M444.8,143.9H400.534a2.784,2.784,0,0,0-2.734,2.734v.841a2.784,2.784,0,0,0,2.734,2.734H444.8a2.784,2.784,0,0,0,2.734-2.734v-.841A2.715,2.715,0,0,0,444.8,143.9Z" transform="translate(20.488 7.411)"/>
  <rect id="XMLID_2_" class="cls-4" width="45.215" height="2.629" transform="translate(420.601 157.62)"/>
</svg>
