<?xml version="1.0" encoding="utf-8"?>
<!-- Generator: Adobe Illustrator 18.0.0, SVG Export Plug-In . SVG Version: 6.00 Build 0)  -->
<!DOCTYPE svg PUBLIC "-//W3C//DTD SVG 1.0//EN" "http://www.w3.org/TR/2001/REC-SVG-20010904/DTD/svg10.dtd">
<svg version="1.0" xmlns="http://www.w3.org/2000/svg" xmlns:xlink="http://www.w3.org/1999/xlink" x="0px" y="0px"
	 viewBox="0 0 101.2 101.2" enable-background="new 0 0 101.2 101.2" xml:space="preserve">
<g id="Layer_1">
	<g>
		<linearGradient id="SVGID_1_" gradientUnits="userSpaceOnUse" x1="2.633481e-002" y1="50.5918" x2="101.2269" y2="50.5918">
			<stop  offset="0" style="stop-color:#FCA915;stop-opacity:0.8"/>
			<stop  offset="1" style="stop-color:#11425D"/>
		</linearGradient>
		<path fill="none" stroke="url(#SVGID_1_)" stroke-width="4.308" stroke-miterlimit="10" d="M15.1,2.2h71.1
			c7.1,0,12.9,5.8,12.9,12.9v71c0,7.1-5.8,12.9-12.9,12.9H15.1C8,99,2.2,93.2,2.2,86.1v-71C2.2,8,8,2.2,15.1,2.2z"/>
		<g>
			<path fill="#FCA915" d="M79.2,48.2c1.6,2.1,2.4,4.8,2.4,8.2v15.8c0,0.5-0.2,0.9-0.5,1.2c-0.3,0.3-0.7,0.5-1.2,0.5
				c-0.5,0-0.9-0.2-1.2-0.5c-0.3-0.3-0.5-0.7-0.5-1.2V56.5c0-2.4-0.6-4.4-1.8-6c-1.2-1.5-3-2.3-5.4-2.3c-1.6,0-3,0.4-4.4,1.1
				c-1.4,0.7-2.5,1.8-3.4,3c-0.9,1.3-1.3,2.7-1.3,4.1v15.6c0,0.5-0.2,0.9-0.5,1.2c-0.3,0.3-0.7,0.5-1.2,0.5c-0.5,0-0.9-0.2-1.2-0.5
				c-0.3-0.3-0.5-0.7-0.5-1.2V56.3c0-2.4-0.6-4.4-1.7-5.9c-1.1-1.5-2.9-2.3-5.2-2.3c-1.5,0-3,0.4-4.3,1.1c-1.4,0.7-2.4,1.7-3.3,3
				c-0.8,1.2-1.3,2.6-1.3,4v15.8c0,0.5-0.2,0.9-0.5,1.2c-0.3,0.3-0.7,0.5-1.2,0.5c-0.5,0-0.9-0.2-1.2-0.5c-0.3-0.3-0.5-0.7-0.5-1.2
				V47.1c0-0.5,0.2-0.9,0.5-1.2c0.3-0.3,0.7-0.5,1.2-0.5c0.5,0,0.9,0.2,1.2,0.5c0.3,0.3,0.5,0.7,0.5,1.2v3.2c1-1.5,2.4-2.8,4.1-3.8
				c1.7-1,3.5-1.5,5.4-1.5c2.2,0,4,0.5,5.6,1.6c1.6,1,2.7,2.6,3.3,4.6c0.8-1.6,2.2-3.1,4.3-4.3c2.1-1.2,4.2-1.8,6.3-1.8
				C75.1,45.1,77.6,46.1,79.2,48.2z"/>
		</g>
		<g>
			<path fill="#11425D" d="M37,72.3V36.2c0-0.4-0.3-0.7-0.7-0.7h-15c-0.8,0-1.5-0.7-1.5-1.5v-4.8c0-0.8,0.7-1.5,1.5-1.5h39.6
				c0.8,0,1.5,0.7,1.5,1.5V34c0,0.8-0.7,1.5-1.5,1.5H45.9c-0.4,0-0.7,0.3-0.7,0.7v36.1c0,0.8-0.7,1.5-1.5,1.5h-5.2
				C37.6,73.8,37,73.1,37,72.3z"/>
		</g>
	</g>
</g>
<g id="Layer_2" display="none">
	
		<rect x="-15" y="-64" display="inline" fill="none" stroke="#851B38" stroke-width="2.834646e-002" stroke-miterlimit="10" width="101.2" height="101.2"/>
	
		<rect x="86.2" y="-64" display="inline" fill="none" stroke="#851B38" stroke-width="2.834646e-002" stroke-miterlimit="10" width="101.2" height="101.2"/>
	
		<rect x="-15" y="37.2" display="inline" fill="none" stroke="#851B38" stroke-width="2.834646e-002" stroke-miterlimit="10" width="101.2" height="101.2"/>
	
		<rect x="86.2" y="37.2" display="inline" fill="none" stroke="#851B38" stroke-width="2.834646e-002" stroke-miterlimit="10" width="101.2" height="101.2"/>
</g>
</svg>
